<svg xmlns="http://www.w3.org/2000/svg" width="1024" height="1024" viewBox="0 0 1024 1024" fill="none">
  <g fill="#FFFFFF">
    <!-- Main bubble: smooth round "cloud" -->
    <path d="M512 240
             C420 240 360 300 360 380
             C300 380 260 420 260 480
             C260 560 320 620 400 620
             C400 700 460 760 540 760
             C620 760 680 700 680 620
             C760 620 820 560 820 480
             C820 400 760 340 680 340
             C680 280 620 240 512 240Z"/>
    <!-- Trailing thought bubbles -->
    <circle cx="700" cy="730" r="45"/>
    <circle cx="770" cy="820" r="30"/>
    <circle cx="820" cy="880" r="20"/>
  </g>
</svg>
